<svg width="183" height="199" viewBox="0 0 183 199" fill="none" xmlns="http://www.w3.org/2000/svg">
<path fill-rule="evenodd" clip-rule="evenodd" d="M97.9227 113.196C59.5273 114.502 23.6033 89.9011 12.1809 51.3522C9.43939 42.1001 8.31921 32.7528 8.65499 23.6149C47.0504 22.3088 82.9744 46.9096 94.3968 85.4584C97.1383 94.7106 98.2585 104.058 97.9227 113.196Z" fill="white"/>
<path fill-rule="evenodd" clip-rule="evenodd" d="M52.3262 190.408C31.9218 157.856 35.1641 114.437 62.7695 85.2068C69.3952 78.1911 76.917 72.5299 84.9885 68.2331C105.393 100.784 102.151 144.203 74.5452 173.434C67.9195 180.45 60.3977 186.111 52.3262 190.408Z" fill="white"/>
<path fill-rule="evenodd" clip-rule="evenodd" d="M52.6296 98.4196C71.5805 65.0013 111.328 47.2284 150.163 57.6344C159.484 60.1319 168.039 64.0615 175.655 69.123C156.704 102.541 116.956 120.314 78.1209 109.908C68.7999 107.411 60.2451 103.481 52.6296 98.4196Z" fill="white"/>
<path fill-rule="evenodd" clip-rule="evenodd" d="M160.086 178.061C140.59 178.019 122.822 164.882 117.737 145.122C116.517 140.38 116.12 135.619 116.458 130.99C135.955 131.033 153.722 144.169 158.807 163.929C160.028 168.672 160.424 173.433 160.086 178.061Z" fill="white"/>
<path fill-rule="evenodd" clip-rule="evenodd" d="M157.996 174.231C156.889 164.038 152.551 154.128 144.946 146.127C137.341 138.127 127.663 133.293 117.538 131.671C118.646 141.865 122.983 151.775 130.588 159.775C138.194 167.776 147.872 172.609 157.996 174.231ZM168.041 184.799C151.817 185.441 135.407 179.359 123.341 166.665C111.274 153.972 106.03 137.275 107.493 121.104C123.718 120.461 140.127 126.544 152.194 139.237C164.26 151.931 169.504 168.627 168.041 184.799Z" fill="black"/>
<path fill-rule="evenodd" clip-rule="evenodd" d="M83.2469 77.9712C78.7044 81.1283 74.4089 84.7954 70.4406 88.9739C46.4136 114.273 41.5678 150.839 55.472 180.669C60.0145 177.512 64.31 173.845 68.2783 169.667C92.3053 144.367 97.1511 107.801 83.2469 77.9712ZM51.6975 194.654C60.3494 190.079 68.417 184.042 75.5294 176.553C105.163 145.35 108.763 98.8876 87.0214 63.9868C78.3695 68.5617 70.3019 74.5984 63.1895 82.0876C33.5558 113.291 29.9558 159.753 51.6975 194.654Z" fill="black"/>
<path fill-rule="evenodd" clip-rule="evenodd" d="M90.8695 106.052C90.3987 100.54 89.3625 94.9882 87.7199 89.4646C77.7747 56.0212 48.4981 33.5843 15.7082 30.7582C16.179 36.27 17.2152 41.822 18.8577 47.3457C28.8029 80.789 58.0795 103.226 90.8695 106.052ZM5.4697 20.5121C5.11988 30.2928 6.32862 40.2962 9.27258 50.196C21.5385 91.4434 60.0142 117.736 101.108 116.298C101.458 106.517 100.249 96.514 97.3051 86.6142C85.0392 45.3668 46.5634 19.0739 5.4697 20.5121Z" fill="black"/>
<path fill-rule="evenodd" clip-rule="evenodd" d="M62.8366 98.4243C67.8426 100.779 73.1665 102.664 78.7698 104.01C112.695 112.16 146.782 98.0651 165.657 71.104C160.651 68.7498 155.327 66.8647 149.724 65.5186C115.798 57.3687 81.7117 71.4632 62.8366 98.4243ZM179.654 67.3773C171.365 62.1739 162.102 58.2078 152.059 55.7953C110.217 45.7435 68.1847 65.8671 48.8395 102.151C57.1286 107.354 66.3914 111.321 76.4339 113.733C118.276 123.785 160.309 103.661 179.654 67.3773Z" fill="black"/>
</svg>
