<svg width="386" height="353" viewBox="0 0 386 353" fill="none" xmlns="http://www.w3.org/2000/svg">
<path d="M32.9337 118.415H28.0391L36.6934 108.148L32.6329 98.2631H37.6641L39.8653 104.812L44.9512 98.2631H49.8184L41.588 107.984L45.9219 118.415H40.8087L38.4297 111.552L32.9337 118.415ZM56.8868 98.2631L53.3731 114.792H63.3536L62.588 118.415H48.3965L52.6758 98.2631H56.8868ZM65.1856 118.415L69.4649 98.2631H73.6485L69.3692 118.415H65.1856ZM81.7149 113.562L89.3848 98.2631H93.7598L82.6036 118.415H78.6251L76.0958 98.2631H80.5938L81.7149 113.562ZM96.6817 98.4651L97.1411 96.3241H106.936L106.476 98.4651H102.859L100.75 108.415H98.2075L100.316 98.4651H96.6817ZM109.983 103.018L108.842 108.415H106.34L108.908 96.3241H111.41L110.426 100.934H115.151L116.135 96.3241H118.645L116.078 108.415H113.567L114.708 103.018H109.983ZM147.075 99.9995C148.716 101.85 149.144 104.621 148.36 108.312C147.586 111.93 145.977 114.701 143.534 116.624C141.684 118.192 139.319 118.976 136.439 118.976C133.558 118.976 131.521 118.192 130.327 116.624C128.696 114.701 128.267 111.93 129.042 108.312C129.826 104.621 131.435 101.85 133.868 99.9995C135.718 98.4317 138.084 97.6479 140.964 97.6479C143.844 97.6479 145.881 98.4317 147.075 99.9995ZM140.212 101.216C138.544 101.216 137.081 101.831 135.823 103.062C134.575 104.292 133.709 106.042 133.226 108.312C132.743 110.581 132.866 112.331 133.595 113.562C134.324 114.792 135.523 115.408 137.19 115.408C138.858 115.408 140.312 114.792 141.552 113.562C142.801 112.331 143.666 110.581 144.149 108.312C144.623 106.052 144.5 104.306 143.78 103.076C143.069 101.836 141.88 101.216 140.212 101.216ZM157.931 98.2631L154.417 114.792H164.398L163.632 118.415H149.44L153.72 98.2631H157.931ZM179.765 98.2631H184.536L175.116 110.841L173.517 118.415H169.306L170.905 110.841L166.612 98.2631H171.575L173.886 107.04L179.765 98.2631ZM194.366 118.415H190.278L190.073 101.503C190 101.886 189.891 102.433 189.745 103.144C189.608 103.846 189.495 104.393 189.403 104.785L186.519 118.415H182.595L186.874 98.2631H192.999L193.286 114.109L200.3 98.2631H206.357L202.077 118.415H198.153L201.038 104.785C201.129 104.393 201.252 103.846 201.407 103.144C201.571 102.433 201.69 101.886 201.763 101.503L194.366 118.415ZM223.651 99.8217C224.627 100.861 224.886 102.47 224.431 104.648C223.92 107.027 222.959 108.708 221.546 109.693C220.133 110.677 218.31 111.169 216.077 111.169H211.798L210.267 118.415H206.083L210.362 98.2631H219.14C221.163 98.2631 222.667 98.7827 223.651 99.8217ZM217.718 101.763H213.794L212.536 107.697H216.46C217.454 107.697 218.278 107.455 218.935 106.972C219.591 106.489 220.028 105.723 220.247 104.675C220.475 103.627 220.357 102.88 219.892 102.433C219.436 101.986 218.711 101.763 217.718 101.763ZM224.335 118.415L228.614 98.2631H232.798L228.519 118.415H224.335ZM251.761 101.216C252.362 102.465 252.558 103.718 252.349 104.976H248.138C248.074 104.01 247.878 103.281 247.55 102.789C246.976 101.914 245.937 101.476 244.433 101.476C242.901 101.476 241.562 102.096 240.413 103.335C239.265 104.566 238.454 106.311 237.98 108.572C237.496 110.832 237.601 112.527 238.294 113.658C238.987 114.779 240.053 115.339 241.493 115.339C242.97 115.339 244.2 114.856 245.185 113.89C245.722 113.371 246.242 112.591 246.743 111.552H250.913C250.084 113.749 248.771 115.535 246.976 116.912C245.189 118.288 243.125 118.976 240.782 118.976C237.884 118.976 235.801 118.046 234.534 116.187C233.276 114.318 232.994 111.757 233.687 108.503C234.434 104.985 235.952 102.274 238.239 100.369C240.235 98.7097 242.5 97.8803 245.034 97.8803C248.425 97.8803 250.667 98.9923 251.761 101.216ZM271.421 110.964L272.146 107.601H280.54L278.243 118.415H275.454L275.564 115.9C274.543 116.857 273.668 117.531 272.939 117.923C271.681 118.607 270.241 118.949 268.618 118.949C265.948 118.949 263.956 118.024 262.644 116.173C261.267 114.314 260.921 111.771 261.605 108.544C262.297 105.281 263.751 102.665 265.966 100.697C268.181 98.728 270.765 97.7436 273.718 97.7436C276.279 97.7436 278.198 98.3953 279.474 99.6987C280.75 100.993 281.297 102.611 281.114 104.552H276.972C276.944 103.176 276.37 102.214 275.249 101.667C274.62 101.367 273.882 101.216 273.034 101.216C271.412 101.216 269.949 101.831 268.646 103.062C267.342 104.283 266.426 106.124 265.898 108.585C265.378 111.065 265.569 112.819 266.472 113.849C267.383 114.879 268.559 115.394 269.999 115.394C271.412 115.394 272.656 114.988 273.732 114.177C274.816 113.357 275.6 112.286 276.083 110.964H271.421ZM297.083 98.2631L299.94 118.415H295.374L294.95 114.273H287.526L285.257 118.415H280.855L292.325 98.2631H297.083ZM293.679 102.871L289.399 110.8H294.513L293.679 102.871ZM314.214 118.415H310.126L309.921 101.503C309.848 101.886 309.739 102.433 309.593 103.144C309.456 103.846 309.342 104.393 309.251 104.785L306.366 118.415H302.442L306.722 98.2631H312.847L313.134 114.109L320.148 98.2631H326.204L321.925 118.415H318.001L320.886 104.785C320.977 104.393 321.1 103.846 321.255 103.144C321.419 102.433 321.537 101.886 321.61 101.503L314.214 118.415ZM341.995 114.792L341.23 118.415H325.958L330.237 98.2631H345.017L344.251 101.831H333.587L332.685 106.111H342.474L341.722 109.611H331.933L330.839 114.792H341.995ZM353.958 106.111L357.253 106.945C358.693 107.309 359.737 107.797 360.384 108.408C361.386 109.356 361.696 110.727 361.314 112.523C360.922 114.364 359.892 115.895 358.224 117.117C356.556 118.329 354.437 118.935 351.866 118.935C349.241 118.935 347.304 118.338 346.056 117.144C344.807 115.941 344.406 114.291 344.853 112.195H348.872C348.808 113.115 348.913 113.803 349.187 114.259C349.697 115.089 350.782 115.503 352.44 115.503C353.434 115.503 354.263 115.394 354.929 115.175C356.196 114.756 356.948 113.977 357.185 112.837C357.33 112.172 357.148 111.657 356.638 111.292C356.136 110.937 355.289 110.622 354.095 110.349L352.058 109.871C350.062 109.397 348.722 108.882 348.038 108.326C346.881 107.396 346.511 105.942 346.931 103.964C347.314 102.16 348.289 100.66 349.857 99.4662C351.424 98.2722 353.48 97.6752 356.023 97.6752C358.146 97.6752 359.837 98.2403 361.095 99.3705C362.353 100.492 362.79 102.123 362.407 104.265H358.36C358.552 103.053 358.21 102.192 357.335 101.681C356.752 101.344 355.972 101.175 354.997 101.175C353.912 101.175 352.996 101.394 352.249 101.831C351.511 102.269 351.06 102.88 350.896 103.664C350.741 104.384 350.946 104.921 351.511 105.277C351.866 105.514 352.682 105.792 353.958 106.111Z" fill="#E3FCE3"/>
<path d="M57.9433 20.7294C59.05 20.7294 60.129 20.8678 61.1803 21.1444C62.287 21.3658 63.366 21.6424 64.4173 21.9744C65.4686 22.3064 66.52 22.6108 67.5713 22.8874C68.6226 23.1088 69.7016 23.2194 70.8083 23.2194C71.3063 23.2194 71.7213 23.2471 72.0533 23.3024C72.3853 23.3578 72.662 23.3578 72.8833 23.3024C73.16 23.1918 73.409 22.9704 73.6303 22.6384C73.907 22.3064 74.2113 21.7808 74.5433 21.0614L76.0373 21.6424C75.816 23.0811 75.2626 24.4921 74.3773 25.8754C73.5473 27.2588 72.6343 28.6974 71.6383 30.1914C70.6423 31.6301 69.7016 33.2071 68.8163 34.9224C67.931 36.5824 67.3223 38.4638 66.9903 40.5664C66.8796 41.2304 66.7966 41.9221 66.7413 42.6414C66.7413 43.3054 66.686 43.9694 66.5753 44.6334L65.2473 45.8784C64.4726 45.7678 64.0023 45.3528 63.8363 44.6334C63.6703 43.9141 63.5873 43.2501 63.5873 42.6414C63.5873 41.4794 63.8363 40.3728 64.3343 39.3214C64.8876 38.2148 65.1643 37.0804 65.1643 35.9184C65.1643 35.1991 64.445 34.4521 63.0063 33.6774C61.623 32.8474 59.9906 32.1004 58.1093 31.4364C56.2833 30.7724 54.485 30.2191 52.7143 29.7764C50.999 29.3338 49.8093 29.1124 49.1453 29.1124C46.9873 29.1124 45.023 29.5828 43.2523 30.5234C41.537 31.4641 40.043 32.7091 38.7703 34.2584C37.553 35.8078 36.5846 37.5508 35.8653 39.4874C35.2013 41.4241 34.8693 43.3884 34.8693 45.3804C34.8693 48.7558 35.644 51.8268 37.1933 54.5934C38.798 57.3048 40.873 59.6564 43.4183 61.6484C45.9636 63.5851 48.7856 65.1068 51.8843 66.2134C55.0383 67.2648 58.1646 67.7904 61.2633 67.7904C63.3106 67.7904 65.0536 67.4308 66.4923 66.7114C67.9863 65.9921 69.259 65.2174 70.3103 64.3874C71.3616 63.5574 72.2193 62.7828 72.8833 62.0634C73.5473 61.3441 74.1006 60.9844 74.5433 60.9844C75.2073 60.9844 75.6776 61.2058 75.9543 61.6484C76.231 62.0358 76.3693 62.5338 76.3693 63.1424C76.3693 65.0791 75.484 66.9604 73.7133 68.7864C71.9426 70.6124 69.8123 72.2448 67.3223 73.6834C64.8876 75.0668 62.37 76.2011 59.7693 77.0864C57.1686 77.9164 55.0383 78.3314 53.3783 78.3314C49.8923 78.3314 46.5723 77.5844 43.4183 76.0904C40.2643 74.5964 37.4976 72.6321 35.1183 70.1974C32.739 67.7074 30.83 64.8578 29.3913 61.6484C28.008 58.4391 27.3163 55.1191 27.3163 51.6884C27.3163 49.3091 27.7313 46.8744 28.5613 44.3844C29.4466 41.8944 30.6086 39.5151 32.0473 37.2464C33.5413 34.9778 35.2566 32.8474 37.1933 30.8554C39.1853 28.8081 41.3156 27.0374 43.5843 25.5434C45.853 24.0494 48.2046 22.8874 50.6393 22.0574C53.074 21.1721 55.5086 20.7294 57.9433 20.7294ZM97.1271 39.1554C99.4511 39.1554 101.664 39.8194 103.767 41.1474C105.87 42.4754 107.696 44.1631 109.245 46.2104C110.85 48.2024 112.122 50.3881 113.063 52.7674C114.004 55.1468 114.474 57.4154 114.474 59.5734C114.474 61.7314 113.921 64.0001 112.814 66.3794C111.763 68.7588 110.352 70.9444 108.581 72.9364C106.81 74.9284 104.818 76.5608 102.605 77.8334C100.392 79.1061 98.1507 79.7424 95.8821 79.7424C93.5581 79.7424 91.3447 79.1891 89.2421 78.0824C87.1947 76.9204 85.3687 75.4264 83.7641 73.6004C82.2147 71.7744 80.9697 69.7271 80.0291 67.4584C79.1437 65.1898 78.7011 62.9488 78.7011 60.7354C78.7011 58.4668 79.1991 56.0874 80.1951 53.5974C81.1911 51.0521 82.5467 48.7281 84.2621 46.6254C85.9774 44.4674 87.9417 42.6968 90.1551 41.3134C92.3684 39.8748 94.6924 39.1554 97.1271 39.1554ZM84.2621 54.8424C84.2621 56.8898 84.8707 58.9371 86.0881 60.9844C87.3607 62.9764 88.9377 64.7748 90.8191 66.3794C92.7004 67.9288 94.7477 69.2014 96.9611 70.1974C99.2297 71.1934 101.332 71.6914 103.269 71.6914C104.099 71.6914 104.846 71.4424 105.51 70.9444C106.174 70.4464 106.755 69.8378 107.253 69.1184C107.751 68.3991 108.111 67.6244 108.332 66.7944C108.609 65.9091 108.747 65.1068 108.747 64.3874C108.747 62.5061 108.166 60.5418 107.004 58.4944C105.842 56.3918 104.376 54.5104 102.605 52.8504C100.89 51.1351 98.9807 49.7241 96.8781 48.6174C94.7754 47.5108 92.7834 46.9574 90.9021 46.9574C89.9061 46.9574 88.9931 47.2064 88.1631 47.7044C87.3331 48.1471 86.6137 48.7558 86.0051 49.5304C85.4517 50.3051 85.0091 51.1628 84.6771 52.1034C84.4004 53.0441 84.2621 53.9571 84.2621 54.8424ZM124.443 41.3964C124.941 41.3964 125.522 41.6454 126.186 42.1434C126.85 42.5861 127.486 43.1118 128.095 43.7204C128.759 44.3291 129.367 44.9378 129.921 45.5464C130.474 46.1551 130.917 46.6531 131.249 47.0404C131.525 47.0404 131.885 46.7638 132.328 46.2104C132.77 45.6018 133.296 44.9654 133.905 44.3014C134.513 43.5821 135.233 42.9458 136.063 42.3924C136.948 41.7838 137.944 41.4794 139.051 41.4794C139.383 41.4794 139.936 41.5624 140.711 41.7284C141.541 41.8391 142.371 42.0051 143.201 42.2264C144.031 42.4478 144.778 42.7244 145.442 43.0564C146.106 43.3884 146.438 43.7204 146.438 44.0524C145.552 45.8231 144.307 47.6214 142.703 49.4474C141.153 51.2181 139.742 52.9058 138.47 54.5104L137.308 54.1784C137.308 53.6804 137.363 53.1824 137.474 52.6844C137.64 52.1311 137.723 51.6054 137.723 51.1074C137.723 50.3881 137.474 49.8348 136.976 49.4474C136.533 49.0048 135.952 48.7834 135.233 48.7834C134.015 48.7834 133.075 49.4751 132.411 50.8584C131.802 52.1864 131.359 53.7358 131.083 55.5064C130.806 57.2771 130.64 59.0201 130.585 60.7354C130.585 62.4508 130.585 63.6958 130.585 64.4704L130.668 73.1024C130.668 73.5451 130.778 73.9601 131 74.3474C131.276 74.6794 131.553 75.0114 131.83 75.3434C132.162 75.6201 132.438 75.9521 132.66 76.3394C132.936 76.6714 133.075 77.0588 133.075 77.5014L131.996 78.7464C131.055 78.7464 130.142 78.5528 129.257 78.1654C128.427 77.7228 127.514 77.5014 126.518 77.5014C125.522 77.5014 124.581 77.7228 123.696 78.1654C122.81 78.5528 121.87 78.7464 120.874 78.7464L119.546 77.6674C120.597 76.4501 121.344 74.9284 121.787 73.1024C122.229 71.2764 122.506 69.3674 122.617 67.3754C122.727 65.3834 122.727 63.3914 122.617 61.3994C122.561 59.4074 122.534 57.6091 122.534 56.0044C122.534 54.8978 122.451 53.7081 122.285 52.4354C122.119 51.1628 121.538 50.1668 120.542 49.4474C120.32 49.2814 119.961 49.1708 119.463 49.1154C119.02 49.0048 118.55 48.8941 118.052 48.7834C117.609 48.6728 117.194 48.5344 116.807 48.3684C116.475 48.2024 116.309 47.9258 116.309 47.5384L116.641 46.8744C117.803 45.8231 119.075 44.8824 120.459 44.0524C121.842 43.1671 123.17 42.2818 124.443 41.3964ZM161.038 20.4804L161.868 20.7294L162.366 21.8084L162.2 22.3894C161.204 23.4961 160.54 24.7134 160.208 26.0414C159.876 27.3694 159.71 28.7528 159.71 30.1914C159.71 32.9581 159.737 35.7248 159.793 38.4914C159.848 41.2028 159.848 43.9418 159.793 46.7084L160.789 48.6174C161.231 48.6174 162.034 48.2024 163.196 47.3724C164.413 46.5424 165.713 45.6294 167.097 44.6334C168.535 43.6374 169.946 42.7244 171.33 41.8944C172.768 41.0091 173.93 40.5664 174.816 40.5664L176.393 42.2264C176.337 42.5584 176.254 42.9181 176.144 43.3054C176.088 43.6374 176.061 43.9694 176.061 44.3014C176.061 44.6334 176.171 45.0208 176.393 45.4634C176.614 45.9061 176.863 46.3764 177.14 46.8744C177.416 47.3171 177.665 47.7874 177.887 48.2854C178.108 48.7834 178.219 49.3091 178.219 49.8624C178.219 50.5818 178.025 51.2181 177.638 51.7714C177.306 52.2694 176.891 52.7398 176.393 53.1824C175.895 53.5698 175.369 53.9571 174.816 54.3444C174.262 54.7318 173.764 55.1468 173.322 55.5894L173.239 55.9214C173.681 56.5854 174.262 57.7198 174.982 59.3244C175.701 60.9291 176.42 62.5891 177.14 64.3044C177.914 65.9644 178.578 67.4584 179.132 68.7864C179.74 70.1144 180.128 70.8614 180.294 71.0274C180.515 71.2488 180.847 71.4148 181.29 71.5254C181.788 71.6361 182.258 71.7744 182.701 71.9404C183.143 72.0511 183.531 72.2171 183.863 72.4384C184.195 72.6044 184.361 72.8811 184.361 73.2684L184.029 73.9324C183.752 74.2091 183.254 74.5964 182.535 75.0944C181.871 75.5924 181.151 76.1181 180.377 76.6714C179.602 77.1694 178.855 77.6121 178.136 77.9994C177.416 78.3868 176.891 78.5804 176.559 78.5804C175.563 78.5804 174.705 78.1654 173.986 77.3354C173.266 76.4501 172.63 75.3711 172.077 74.0984C171.523 72.8258 170.998 71.4424 170.5 69.9484C170.057 68.3991 169.559 66.9881 169.006 65.7154C168.508 64.4428 167.927 63.3914 167.263 62.5614C166.654 61.6761 165.935 61.2334 165.105 61.2334C164.053 61.2334 163.113 61.5654 162.283 62.2294C161.453 62.8381 160.65 63.4191 159.876 63.9724L159.71 72.1064C159.71 72.9364 159.876 73.7664 160.208 74.5964C160.595 75.4264 161.01 76.1734 161.453 76.8374L160.042 77.9994C159.101 77.9994 158.216 77.8334 157.386 77.5014C156.556 77.1694 155.67 77.0034 154.73 77.0034C153.955 77.0034 153.236 77.1971 152.572 77.5844C151.963 77.9164 151.271 78.0824 150.497 78.0824L148.92 76.7544C149.694 75.8138 150.275 74.7348 150.663 73.5174C151.05 72.3001 151.244 71.1104 151.244 69.9484V40.4834C151.244 40.0408 151.244 39.3491 151.244 38.4084C151.244 37.4678 151.216 36.4994 151.161 35.5034C151.161 34.5074 151.105 33.5944 150.995 32.7644C150.884 31.8791 150.746 31.2704 150.58 30.9384C150.414 30.6618 150.192 30.4404 149.916 30.2744C149.639 30.0531 149.335 29.8594 149.003 29.6934C148.726 29.5274 148.477 29.3338 148.256 29.1124C148.034 28.8358 147.924 28.5314 147.924 28.1994L148.92 26.5394C150.082 26.3181 151.188 25.9031 152.24 25.2944C153.291 24.6304 154.315 23.9388 155.311 23.2194C156.307 22.5001 157.275 21.8638 158.216 21.3104C159.156 20.7571 160.097 20.4804 161.038 20.4804ZM159.793 56.4194C159.793 56.9174 159.82 57.4154 159.876 57.9134C159.931 58.4114 160.014 58.8818 160.125 59.3244C160.789 59.1584 161.619 58.8264 162.615 58.3284C163.611 57.8304 164.607 57.2771 165.603 56.6684C166.599 56.0044 167.512 55.3128 168.342 54.5934C169.172 53.8741 169.753 53.2378 170.085 52.6844V52.4354C170.085 51.6054 169.863 50.8308 169.421 50.1114C169.033 49.3921 168.701 48.6451 168.425 47.8704H168.176C167.235 47.8704 166.267 48.1471 165.271 48.7004C164.275 49.2538 163.362 49.9731 162.532 50.8584C161.757 51.6884 161.093 52.6014 160.54 53.5974C160.042 54.5934 159.793 55.5341 159.793 56.4194ZM220.584 28.6144C222.798 28.6144 224.845 29.0571 226.726 29.9424C228.608 30.7724 230.24 31.9068 231.623 33.3454C233.007 34.7841 234.086 36.4718 234.86 38.4084C235.635 40.3451 236.022 42.3924 236.022 44.5504C236.022 47.0958 235.497 49.3368 234.445 51.2734C233.449 53.2101 232.204 55.0361 230.71 56.7514C229.216 58.4114 227.612 60.0438 225.896 61.6484C224.236 63.1978 222.742 64.8854 221.414 66.7114C222.3 66.9881 223.296 67.3478 224.402 67.7904C225.564 68.2331 226.726 68.6758 227.888 69.1184C229.05 69.5058 230.185 69.8654 231.291 70.1974C232.398 70.4741 233.422 70.6124 234.362 70.6124C235.082 70.6124 235.773 70.4464 236.437 70.1144C237.101 69.7271 237.71 69.2844 238.263 68.7864C238.872 68.2331 239.398 67.6521 239.84 67.0434C240.338 66.4348 240.753 65.8538 241.085 65.3004L242.745 66.5454C242.69 67.5968 242.164 68.9248 241.168 70.5294C240.228 72.0788 239.066 73.6004 237.682 75.0944C236.299 76.5331 234.833 77.7781 233.283 78.8294C231.789 79.8808 230.489 80.4064 229.382 80.4064C229.106 80.4064 228.552 80.2128 227.722 79.8254C226.948 79.4381 225.979 79.0231 224.817 78.5804C223.655 78.1378 222.355 77.7228 220.916 77.3354C219.533 76.9481 218.15 76.7544 216.766 76.7544C215.217 76.7544 213.723 77.0311 212.284 77.5844C210.846 78.1378 209.379 78.4144 207.885 78.4144L206.972 78.1654L206.474 77.1694C206.474 76.5608 207.028 75.6754 208.134 74.5134C209.241 73.2961 210.597 71.9128 212.201 70.3634C213.806 68.7588 215.521 67.0434 217.347 65.2174C219.229 63.3914 220.972 61.5101 222.576 59.5734C224.181 57.5814 225.509 55.6171 226.56 53.6804C227.612 51.6884 228.137 49.7794 228.137 47.9534C228.137 45.2974 227.307 43.1394 225.647 41.4794C223.987 39.7641 221.829 38.9064 219.173 38.9064C216.849 38.9064 214.996 39.2938 213.612 40.0684C212.229 40.8431 211.122 41.7008 210.292 42.6414C209.462 43.5821 208.798 44.4398 208.3 45.2144C207.802 45.9891 207.277 46.3764 206.723 46.3764L205.312 45.0484C205.312 42.8351 205.672 40.7324 206.391 38.7404C207.111 36.7484 208.134 35.0054 209.462 33.5114C210.79 32.0174 212.395 30.8278 214.276 29.9424C216.158 29.0571 218.26 28.6144 220.584 28.6144ZM265.206 28.5314C268.194 28.5314 270.878 29.3891 273.257 31.1044C275.692 32.7644 277.767 34.8671 279.482 37.4124C281.197 39.9024 282.498 42.6414 283.383 45.6294C284.324 48.6174 284.794 51.4118 284.794 54.0124C284.794 55.6724 284.545 57.4984 284.047 59.4904C283.604 61.4271 282.94 63.3914 282.055 65.3834C281.225 67.3201 280.201 69.2014 278.984 71.0274C277.767 72.7981 276.383 74.4028 274.834 75.8414C273.34 77.2248 271.708 78.3314 269.937 79.1614C268.222 79.9914 266.423 80.4064 264.542 80.4064C261.222 80.4064 258.317 79.5488 255.827 77.8334C253.392 76.1181 251.345 73.9601 249.685 71.3594C248.08 68.7588 246.863 65.9091 246.033 62.8104C245.203 59.7118 244.788 56.7791 244.788 54.0124C244.788 51.5224 245.314 48.7834 246.365 45.7954C247.472 42.8074 248.938 40.0408 250.764 37.4954C252.645 34.9501 254.831 32.8198 257.321 31.1044C259.811 29.3891 262.439 28.5314 265.206 28.5314ZM250.764 48.2024C250.764 50.3604 251.29 52.8228 252.341 55.5894C253.392 58.3561 254.776 60.9568 256.491 63.3914C258.262 65.7708 260.254 67.7904 262.467 69.4504C264.736 71.1104 267.087 71.9404 269.522 71.9404C270.85 71.9404 272.012 71.6361 273.008 71.0274C274.059 70.3634 274.945 69.5334 275.664 68.5374C276.383 67.5414 276.937 66.4348 277.324 65.2174C277.711 64.0001 277.905 62.8104 277.905 61.6484C277.905 59.2138 277.49 56.6131 276.66 53.8464C275.83 51.0244 274.613 48.4238 273.008 46.0444C271.459 43.6098 269.55 41.5901 267.281 39.9854C265.068 38.3808 262.578 37.5784 259.811 37.5784C258.206 37.5784 256.823 37.8551 255.661 38.4084C254.499 38.9618 253.558 39.7364 252.839 40.7324C252.12 41.6731 251.594 42.7798 251.262 44.0524C250.93 45.3251 250.764 46.7084 250.764 48.2024ZM308.343 27.9504C308.896 27.9504 309.726 28.0334 310.833 28.1994C311.995 28.3101 313.157 28.5314 314.319 28.8634C315.481 29.1954 316.504 29.6381 317.39 30.1914C318.275 30.6894 318.745 31.2981 318.801 32.0174C318.247 33.0688 317.583 34.0648 316.809 35.0054C316.089 35.9461 315.342 36.8868 314.568 37.8274C313.406 36.6101 311.995 35.5864 310.335 34.7564C308.675 33.8711 306.987 33.4284 305.272 33.4284C303.39 33.4284 301.703 33.8988 300.209 34.8394C298.715 35.7801 297.442 36.9974 296.391 38.4914C295.339 39.9854 294.537 41.6454 293.984 43.4714C293.43 45.2421 293.154 46.9574 293.154 48.6174C293.154 50.9414 293.569 53.2931 294.399 55.6724C295.284 58.0518 296.501 60.2098 298.051 62.1464C299.6 64.0831 301.426 65.6601 303.529 66.8774C305.631 68.0948 307.928 68.7034 310.418 68.7034C311.58 68.7034 312.742 68.4821 313.904 68.0394C315.066 67.5968 316.089 66.9881 316.975 66.2134C317.915 65.3834 318.662 64.4428 319.216 63.3914C319.769 62.3401 320.046 61.1781 320.046 59.9054C320.046 58.6881 319.741 57.5261 319.133 56.4194C318.524 55.2574 317.749 54.2614 316.809 53.4314C315.868 52.6014 314.789 51.9374 313.572 51.4394C312.41 50.9414 311.22 50.6924 310.003 50.6924C309.394 50.6924 308.785 50.8031 308.177 51.0244C307.568 51.2458 307.015 51.5778 306.517 52.0204C306.019 52.4078 305.604 52.8781 305.272 53.4314C304.94 53.9848 304.774 54.5934 304.774 55.2574C304.774 56.0321 304.967 56.7514 305.355 57.4154C305.742 58.0794 306.074 58.7711 306.351 59.4904L304.774 60.7354C304.054 60.7354 303.363 60.4864 302.699 59.9884C302.09 59.4351 301.564 58.7988 301.122 58.0794C300.679 57.3048 300.319 56.5024 300.043 55.6724C299.766 54.8424 299.628 54.1231 299.628 53.5144C299.628 51.9098 299.932 50.3881 300.541 48.9494C301.149 47.4554 301.979 46.1551 303.031 45.0484C304.082 43.8864 305.327 42.9734 306.766 42.3094C308.204 41.6454 309.754 41.3134 311.414 41.3134C313.738 41.3134 315.702 41.8668 317.307 42.9734C318.911 44.0248 320.212 45.4081 321.208 47.1234C322.204 48.7834 322.923 50.6371 323.366 52.6844C323.808 54.7318 324.03 56.7238 324.03 58.6604C324.03 61.1504 323.476 63.5851 322.37 65.9644C321.318 68.3438 319.88 70.4741 318.054 72.3554C316.283 74.2368 314.208 75.7584 311.829 76.9204C309.505 78.0271 307.098 78.5804 304.608 78.5804C301.675 78.5804 299.102 77.8058 296.889 76.2564C294.731 74.6518 292.932 72.6598 291.494 70.2804C290.055 67.8458 288.976 65.2174 288.257 62.3954C287.593 59.5181 287.261 56.8344 287.261 54.3444C287.261 51.3011 287.703 48.2301 288.589 45.1314C289.529 41.9774 290.885 39.1278 292.656 36.5824C294.482 34.0371 296.695 31.9621 299.296 30.3574C301.896 28.7528 304.912 27.9504 308.343 27.9504ZM345.249 27.5354C346.798 27.5354 348.403 27.8121 350.063 28.3654C351.723 28.9188 353.245 29.6934 354.628 30.6894C356.011 31.6854 357.146 32.8751 358.031 34.2584C358.916 35.6418 359.359 37.1911 359.359 38.9064C359.359 40.4558 359.138 41.6731 358.695 42.5584C358.308 43.3884 357.81 44.0801 357.201 44.6334C356.648 45.1314 356.094 45.6018 355.541 46.0444C354.988 46.4318 354.573 46.9298 354.296 47.5384C354.407 48.0364 354.877 48.6174 355.707 49.2814C356.592 49.8901 357.505 50.7201 358.446 51.7714C359.442 52.7674 360.327 54.0678 361.102 55.6724C361.932 57.2218 362.347 59.1584 362.347 61.4824C362.347 63.5298 361.738 65.5771 360.521 67.6244C359.304 69.6718 357.782 71.4978 355.956 73.1024C354.13 74.7071 352.11 76.0351 349.897 77.0864C347.739 78.0824 345.664 78.5804 343.672 78.5804C341.625 78.5804 339.577 78.0824 337.53 77.0864C335.483 76.0904 333.629 74.7901 331.969 73.1854C330.309 71.5808 328.953 69.7824 327.902 67.7904C326.906 65.7431 326.408 63.6681 326.408 61.5654C326.408 59.7948 326.602 58.3284 326.989 57.1664C327.376 56.0044 327.902 54.9531 328.566 54.0124C329.23 53.0164 329.977 52.0758 330.807 51.1904C331.692 50.3051 332.605 49.2814 333.546 48.1194C333.546 47.7321 333.408 47.2894 333.131 46.7914C332.854 46.2381 332.55 45.6294 332.218 44.9654C331.886 44.3014 331.582 43.6098 331.305 42.8904C331.028 42.1158 330.89 41.2581 330.89 40.3174C330.89 38.3254 331.277 36.5271 332.052 34.9224C332.827 33.3178 333.878 31.9898 335.206 30.9384C336.534 29.8318 338.056 29.0018 339.771 28.4484C341.542 27.8398 343.368 27.5354 345.249 27.5354ZM336.617 35.7524C336.617 36.6378 337.17 37.6338 338.277 38.7404C339.384 39.8471 340.684 40.8984 342.178 41.8944C343.672 42.8904 345.138 43.7204 346.577 44.3844C348.071 45.0484 349.178 45.3804 349.897 45.3804C350.395 45.3804 350.865 45.2698 351.308 45.0484C351.751 44.7718 352.166 44.4398 352.553 44.0524C352.94 43.6098 353.245 43.1394 353.466 42.6414C353.687 42.1434 353.798 41.6731 353.798 41.2304C353.798 40.0131 353.3 38.8511 352.304 37.7444C351.308 36.5824 350.091 35.5864 348.652 34.7564C347.269 33.8711 345.802 33.1794 344.253 32.6814C342.704 32.1281 341.403 31.8514 340.352 31.8514C339.245 31.8514 338.332 32.2388 337.613 33.0134C336.949 33.7328 336.617 34.6458 336.617 35.7524ZM336.617 50.6094C336.174 50.6094 335.704 50.8308 335.206 51.2734C334.708 51.7161 334.238 52.2418 333.795 52.8504C333.408 53.4038 333.076 54.0124 332.799 54.6764C332.522 55.2851 332.384 55.7831 332.384 56.1704C332.384 57.9411 332.91 59.7671 333.961 61.6484C335.068 63.4744 336.423 65.1344 338.028 66.6284C339.688 68.1224 341.486 69.3398 343.423 70.2804C345.36 71.2211 347.213 71.6914 348.984 71.6914C349.759 71.6914 350.533 71.5808 351.308 71.3594C352.083 71.0828 352.774 70.7231 353.383 70.2804C354.047 69.8378 354.573 69.2844 354.96 68.6204C355.347 67.9011 355.541 67.1264 355.541 66.2964C355.541 64.7471 354.794 63.0594 353.3 61.2334C351.861 59.4074 350.118 57.7198 348.071 56.1704C346.079 54.5658 344.004 53.2378 341.846 52.1864C339.743 51.1351 338 50.6094 336.617 50.6094Z" fill="#E3FCE3"/>
<path d="M147.878 337.974C153.883 336.565 156.996 335.456 161.614 332.995C166.918 330.159 169.306 328.325 173.457 323.929C181.076 315.71 184.704 307.779 185.999 296.078C187.227 285.329 182.368 272.139 174.128 263.92C166.043 255.845 153.338 251.583 142.894 253.395C134.093 254.951 128.202 258.207 122.524 264.708C119.637 268.01 117.851 271.324 116.414 276.076C115.472 279.211 115.633 288.161 116.734 291.074C118.889 296.953 122.397 301.434 127.151 304.371C131.141 306.885 133.763 307.494 139.058 307.261C144.553 307.02 148.003 305.5 150.983 301.994C154.11 298.384 154.706 296.812 154.557 292.515C154.446 289.317 154.217 288.474 153.007 286.765C150.585 283.297 145.994 282.205 143.776 284.584C142.763 285.669 142.678 286.123 143.011 288.512C143.348 291.002 143.26 291.356 142.236 292.141C140.627 293.348 137.076 293.371 135.232 292.134C132.673 290.472 131.116 287.424 130.995 283.926C130.803 278.379 133.883 273.42 139.238 270.582C142.087 269.083 142.882 268.905 147.129 268.758C150.827 268.63 152.435 268.824 154.563 269.601C163.886 272.98 169.937 281.575 170.301 292.069C170.481 297.266 170.102 299.33 167.975 304.357C164.413 312.735 156.934 319.248 147.427 322.08C144.506 322.981 133.118 323.526 131.245 322.891C130.587 322.663 129.172 322.262 128.061 321.951C118.923 319.566 110.127 312.616 105.228 304.081C101.658 297.801 100.177 292.599 99.8603 284.905C99.4639 274.913 101.372 267.893 106.681 259.404C114.315 247.282 126.264 239.813 141.789 237.374C146.617 236.656 152.83 236.941 158.176 238.157C159.537 238.46 161.252 238.851 161.956 238.976C162.663 239.152 163.673 239.417 164.231 239.648C164.788 239.829 166.052 240.235 167.014 240.552C167.975 240.869 169.24 241.275 169.797 241.456C170.354 241.637 171.717 241.99 172.826 242.252C173.936 242.513 175.954 242.994 177.365 243.295C183.956 244.702 195.022 244.341 201.351 242.464C211.084 239.577 218.557 235.887 226.425 229.737C231.78 225.449 239.237 215.435 241.531 209.452C241.807 208.742 242.265 207.525 242.585 206.663C243.646 204.075 244.132 202.207 245.554 195.604C246.375 191.873 245.723 178.838 244.533 174.827C242.549 168.091 242.326 167.449 239.97 162.978C236.7 156.687 229.044 147.997 224.71 145.646C221.536 143.812 218.549 141.748 214.922 140.382C202.689 135.303 187.303 135.986 176.361 142.169C173.222 143.979 171.507 145.039 171.218 145.349C171.073 145.504 170.198 146.235 169.271 146.918C163.272 151.378 157.345 160.789 155.616 168.654C153.839 176.57 154.049 181.166 156.485 189.386C158.35 195.575 163.387 202.305 169.703 206.989C171.552 208.376 178.152 211.148 181.176 211.794C184.907 212.615 191.703 212.38 195.368 211.302C208.542 207.443 217.136 194.138 213.98 182.49C212.603 177.385 209.499 172.99 205.616 170.673C202.959 169.064 199.066 167.898 196.717 167.979C193.719 168.083 189.975 169.764 187.903 172.037C185.782 174.362 185.274 175.58 185.373 178.429C185.452 180.727 185.668 181.17 187.319 182.614C188.301 183.53 189.476 184.24 189.826 184.228C190.226 184.214 191.303 183.526 192.173 182.646C194.693 180.307 197.204 180.57 198.803 183.416C201.31 187.882 198.411 193.736 192.441 196.144C189.432 197.399 187.137 197.579 184.561 196.868C178.8 195.216 175.042 192.145 172.203 186.74C170.699 183.79 170.524 183.046 170.368 178.549C170.127 171.603 171.904 166.588 176.29 161.783C181.786 155.789 187.746 153.081 196.241 152.787C202.185 152.531 204.3 152.908 210.083 155.209C215.204 157.182 222.126 163.446 225.368 168.937C228.717 174.625 230.896 182.654 230.53 187.97C229.974 196.444 228.351 201.604 223.997 208.759C220.398 214.637 212.339 221.72 206.468 224.125C205.531 224.508 204.299 225.051 203.756 225.27C202.573 225.761 199.702 226.661 196.478 227.473C188.794 229.491 175.177 227.812 167.538 223.924C166.671 223.454 165.043 222.66 163.973 222.096C160.866 220.503 158.708 218.877 154.57 214.968C146.193 207.103 141.644 198.556 139.048 185.738C138.682 183.85 138.16 181.766 137.887 181.126C136.993 179.021 136.484 176.54 135.701 174.347C134.924 172.123 132.081 166.618 130.015 163.288C126.995 158.439 120.089 151.174 115.527 148.03C114.399 147.219 113.373 146.504 113.218 146.359C112.131 145.296 105.051 141.69 100.995 140.129C98.0533 138.98 94.2034 137.624 89.6339 137.121C84.3041 136.535 71.915 136.885 68.6465 137.849C63.1483 139.44 62.0611 139.828 58.4618 141.354C49.1439 145.329 40.5917 152.629 35.3809 161.065C29.5568 170.573 27.2924 178.856 27.6614 189.5C27.8537 195.046 28.1746 197.086 29.697 202.037C30.8832 205.948 33.836 211.749 36.6195 215.555C40.2424 220.482 48.7369 227.392 53.5551 229.276C60.4033 231.991 60.7066 232.08 67.2821 232.703C80.1316 233.908 91.4344 229.464 100.005 219.811C106.36 212.637 109.155 203.785 108.166 194.013C107.353 186.437 104.295 180.489 98.5063 175.136C94.2168 171.183 91.7732 169.967 85.5697 168.531C79.9028 167.272 72.5054 168.984 70.6737 170.348C69.4757 170.847 64.3592 174.369 62.7812 176.475C59.5753 180.689 58.0412 186.945 59.2447 191.356C61.8846 201.121 72.5498 205.704 77.5267 199.178C79.873 196.145 79.1902 193.767 75.6525 192.739C69.7884 190.991 73.3228 183.264 80.1187 183.028C85.2156 182.851 89.8911 186.392 92.1408 192.117C93.0166 194.288 93.2675 200.083 92.582 201.958C91.2576 205.606 90.0829 207.798 88.3481 209.709C83.8689 214.717 78.6483 217.1 71.7025 217.34C64.157 217.602 58.6788 215.44 52.8365 209.99C49.8894 207.24 48.4227 205.34 47.0282 202.636C44.0824 197.035 43.6168 195.15 43.3881 188.554C43.2183 183.657 43.4075 181.899 44.2582 179.018C45.598 174.369 47.6081 170.297 49.9131 167.515C50.9709 166.278 51.8305 165.098 51.8235 164.898C51.801 164.248 57.9861 159.381 61.0736 157.523C71.6162 151.354 82.5405 150.425 94.9943 154.646C105.878 158.321 116.748 168.801 120.875 179.614C121.258 180.551 121.751 181.785 121.97 182.328C123.924 186.763 124.981 199.934 123.833 205.777C121.499 217.815 116.171 227.206 106.807 235.635C101.956 240.006 97.0891 245.378 94.4225 249.272C90.2795 255.32 86.3078 264.863 85.0925 271.659C84.8412 273.069 84.4659 275.233 84.2112 276.543C83.292 281.778 84.3952 293.396 86.471 299.878C86.7538 300.819 87.2003 302.154 87.3745 302.849C87.8831 304.532 88.3175 305.518 90.4067 309.498C96.0381 320.409 105.765 329.678 116.482 334.309C122.832 337.091 124.347 337.489 132.797 338.797C136.318 339.325 143.858 338.913 147.878 337.974Z" fill="#E3FCE3"/>
<path d="M298.135 138.219C292.129 139.622 289.014 140.727 284.394 143.184C279.086 146.014 276.696 147.845 272.542 152.238C264.914 160.449 261.278 168.375 259.971 180.076C258.731 190.824 263.578 204.018 271.809 212.246C279.885 220.329 292.586 224.604 303.032 222.802C311.835 221.255 317.729 218.005 323.414 211.51C326.304 208.211 328.094 204.899 329.535 200.148C330.48 197.014 330.329 188.064 329.23 185.15C327.082 179.269 323.579 174.784 318.827 171.842C314.84 169.325 312.218 168.713 306.923 168.941C301.428 169.176 297.977 170.693 294.993 174.195C291.862 177.802 291.265 179.373 291.409 183.671C291.517 186.869 291.745 187.712 292.954 189.422C295.372 192.893 299.961 193.989 302.182 191.613C303.197 190.528 303.281 190.075 302.951 187.685C302.617 185.195 302.705 184.842 303.729 184.057C305.34 182.852 308.891 182.832 310.734 184.071C313.291 185.736 314.845 188.786 314.962 192.284C315.149 197.83 312.064 202.787 306.706 205.619C303.855 207.115 303.06 207.292 298.813 207.435C295.115 207.56 293.507 207.363 291.38 206.585C282.061 203.196 276.018 194.594 275.665 184.1C275.49 178.903 275.871 176.839 278.003 171.815C281.574 163.44 289.059 156.935 298.57 154.113C301.491 153.215 312.879 152.681 314.752 153.319C315.41 153.547 316.824 153.95 317.936 154.262C327.071 156.656 335.86 163.615 340.75 172.155C344.313 178.439 345.789 183.642 346.098 191.336C346.484 201.329 344.569 208.347 339.251 216.831C331.604 228.945 319.648 236.401 304.121 238.824C299.292 239.537 293.079 239.246 287.735 238.025C286.374 237.72 284.66 237.328 283.955 237.202C283.249 237.025 282.239 236.759 281.681 236.528C281.125 236.346 279.86 235.939 278.899 235.621C277.938 235.303 276.673 234.895 276.117 234.714C275.561 234.532 274.198 234.178 273.088 233.915C271.979 233.652 269.962 233.17 268.551 232.867C258.087 230.968 247.932 232.66 244.564 233.674C235.316 236.407 227.146 240.393 219.477 246.375C214.118 250.657 206.65 260.664 204.35 266.645C204.074 267.355 203.614 268.571 203.293 269.432C202.23 272.019 201.742 273.887 200.313 280.488C199.488 284.218 200.127 297.254 201.312 301.267C203.29 308.004 203.512 308.647 205.864 313.12C209.127 319.414 216.938 327.663 221.106 330.468C221.655 330.837 227.335 334.399 230.888 335.742C243.117 340.833 258.503 340.166 269.451 333.994C271.992 332.533 274.214 330.967 276.546 329.253C282.55 324.798 288.487 315.393 290.223 307.531C292.008 299.616 291.804 295.02 289.376 286.797C287.517 280.606 282.487 273.872 276.176 269.181C274.328 267.793 267.731 265.013 264.708 264.364C260.978 263.539 254.181 263.768 250.516 264.842C237.337 268.687 228.73 281.984 231.873 293.635C233.246 298.741 236.345 303.14 240.225 305.461C242.881 307.072 246.773 308.242 249.121 308.163C252.12 308.062 255.865 306.385 257.94 304.114C260.063 301.791 260.573 300.574 260.477 297.725C260.4 295.427 260.184 294.984 258.535 293.538C257.554 292.621 256.379 291.91 256.029 291.921C255.629 291.935 254.552 292.622 253.681 293.501C251.158 295.837 248.648 295.572 247.051 292.724C244.549 288.255 247.454 282.404 253.427 280.002C256.437 278.75 258.732 278.573 261.307 279.287C267.066 280.944 270.822 284.02 273.655 289.427C275.155 292.379 275.331 293.123 275.482 297.621C275.715 304.567 273.933 309.58 269.542 314.38C264.04 320.368 258.078 323.07 249.583 323.356C243.638 323.606 241.524 323.227 235.743 320.92C230.623 318.941 223.709 312.67 220.472 307.176C217.129 301.485 214.957 293.453 215.329 288.138C215.894 279.664 217.522 274.506 221.884 267.356C225.488 261.481 233.555 254.406 239.428 252.007C240.365 251.625 241.598 251.084 242.141 250.865C243.325 250.375 246.196 249.478 249.421 248.669C257.108 246.66 267.481 248.878 278.358 252.248C280.411 252.884 285.814 254.368 288.291 254.542C323.65 257.023 337.077 242.418 339.101 240.599C343.956 236.233 348.829 230.867 351.499 226.975C355.649 220.932 359.63 211.392 360.852 204.597C361.105 203.188 361.482 201.024 361.739 199.715C362.663 194.481 361.572 182.861 359.503 176.377C359.221 175.436 358.776 174.1 358.602 173.406C358.095 171.722 357.662 170.736 355.577 166.754C349.957 155.837 340.239 146.558 329.527 141.916C323.18 139.127 321.665 138.728 313.216 137.411C309.696 136.88 302.156 137.283 298.135 138.219Z" fill="#E3FCE3"/>
</svg>
